<?xml version='1.0' encoding='utf-8'?>
<!-- Generator: Adobe Illustrator 25.4.1, SVG Export Plug-In . SVG Version: 6.00 Build 0)  -->
<svg id="Capa_1" xml:space="preserve" xmlns="http://www.w3.org/2000/svg" viewBox="0 0 145.1 105" x="0px" xmlns:xlink="http://www.w3.org/1999/xlink" style="enable-background:new 0 0 145.1 105;" version="1.1" y="0px">
 <style type="text/css">&#xd;
	.st0{opacity:0.85;fill:#1D1D1B;enable-background:new    ;}&#xd;
	.st1{fill:#FFFFFF;}&#xd;
	.st2{fill:#AA0000;}&#xd;
	.st3{fill:#AAFF00;}&#xd;
	.st4{fill:#00007F;}&#xd;
</style>
 <g>
  <path class="st0" d="M128.6,105h-112c-8.7,0-15.8-6.4-15.8-14.3V14.3C0.8,6.4,7.8,0,16.6,0h112c8.7,0,15.8,6.4,15.8,14.3v76.4&#xd;&#xa;&#x9;&#x9;C144.3,98.6,137.3,105,128.6,105z"/>
  <g>
   <g>
    <path class="st1" d="M41.6,22.6c0.8,0.4,1.4,1,1.9,1.8c0.4,0.8,0.7,1.7,0.7,2.7S44,29,43.5,29.8c-0.4,0.8-1.1,1.3-1.9,1.7&#xd;&#xa;&#x9;&#x9;&#x9;&#x9;S39.9,32,38.8,32h-3.3V22h3.3C39.9,21.9,40.8,22.1,41.6,22.6z M41.5,29.7c0.6-0.6,0.9-1.5,0.9-2.7s-0.3-2.1-0.9-2.7&#xd;&#xa;&#x9;&#x9;&#x9;&#x9;c-0.6-0.7-1.5-1-2.7-1h-1.6v7.4h1.6C40,30.6,40.9,30.3,41.5,29.7z"/>
    <path class="st1" d="M45.8,22.7c-0.2-0.2-0.3-0.5-0.3-0.8s0.1-0.5,0.3-0.8c0.2-0.2,0.5-0.3,0.8-0.3s0.5,0.1,0.7,0.3&#xd;&#xa;&#x9;&#x9;&#x9;&#x9;c0.2,0.2,0.3,0.5,0.3,0.8s-0.1,0.5-0.3,0.8c-0.2,0.2-0.4,0.3-0.7,0.3S46,22.9,45.8,22.7z M47.4,24v8h-1.6v-8H47.4z"/>
    <path class="st1" d="M50.8,31.8c-0.5-0.2-0.9-0.5-1.2-0.9s-0.4-0.8-0.5-1.3h1.7c0,0.3,0.2,0.6,0.5,0.8c0.3,0.2,0.7,0.3,1.1,0.3&#xd;&#xa;&#x9;&#x9;&#x9;&#x9;c0.5,0,0.8-0.1,1.1-0.3c0.3-0.2,0.4-0.4,0.4-0.7c0-0.3-0.1-0.5-0.4-0.7c-0.3-0.1-0.7-0.3-1.4-0.5c-0.6-0.2-1.1-0.3-1.5-0.5&#xd;&#xa;&#x9;&#x9;&#x9;&#x9;s-0.7-0.4-1-0.7c-0.3-0.3-0.4-0.7-0.4-1.3c0-0.4,0.1-0.8,0.4-1.2c0.3-0.4,0.6-0.6,1.1-0.8c0.5-0.2,1-0.3,1.6-0.3&#xd;&#xa;&#x9;&#x9;&#x9;&#x9;c0.9,0,1.6,0.2,2.2,0.7c0.6,0.5,0.9,1.1,0.9,1.9h-1.6c0-0.4-0.2-0.6-0.4-0.9c-0.3-0.2-0.6-0.3-1.1-0.3c-0.4,0-0.8,0.1-1,0.2&#xd;&#xa;&#x9;&#x9;&#x9;&#x9;c-0.2,0.2-0.3,0.4-0.3,0.6s0.1,0.4,0.2,0.5c0.2,0.1,0.3,0.3,0.6,0.3c0.2,0.1,0.5,0.2,1,0.3c0.6,0.2,1.1,0.3,1.4,0.5&#xd;&#xa;&#x9;&#x9;&#x9;&#x9;c0.4,0.2,0.7,0.4,1,0.7c0.3,0.3,0.4,0.7,0.4,1.2s-0.1,0.9-0.4,1.2c-0.3,0.4-0.6,0.6-1.1,0.8s-1,0.3-1.6,0.3&#xd;&#xa;&#x9;&#x9;&#x9;&#x9;C51.8,32.1,51.3,32,50.8,31.8z"/>
    <path class="st1" d="M60.1,24.3c0.5-0.2,1-0.4,1.6-0.4c0.7,0,1.3,0.2,1.9,0.5s1,0.8,1.4,1.4c0.3,0.6,0.5,1.3,0.5,2.1&#xd;&#xa;&#x9;&#x9;&#x9;&#x9;c0,0.8-0.2,1.5-0.5,2.1c-0.3,0.6-0.8,1.1-1.4,1.5C63,31.9,62.4,32,61.7,32c-0.6,0-1.1-0.1-1.6-0.4c-0.5-0.2-0.9-0.6-1.2-0.9v4.9&#xd;&#xa;&#x9;&#x9;&#x9;&#x9;h-1.6V24h1.6v1.2C59.2,24.8,59.6,24.5,60.1,24.3z M63.4,26.5c-0.2-0.4-0.5-0.7-0.9-0.9c-0.4-0.2-0.8-0.3-1.2-0.3&#xd;&#xa;&#x9;&#x9;&#x9;&#x9;s-0.8,0.1-1.2,0.3c-0.4,0.2-0.7,0.5-0.9,0.9C59,27,58.9,27.4,58.9,28c0,0.5,0.1,1,0.3,1.4s0.5,0.7,0.9,0.9&#xd;&#xa;&#x9;&#x9;&#x9;&#x9;c0.4,0.2,0.8,0.3,1.2,0.3s0.8-0.1,1.2-0.3c0.4-0.2,0.7-0.5,0.9-0.9s0.3-0.9,0.3-1.4S63.7,26.9,63.4,26.5z"/>
    <path class="st1" d="M68.5,31.6c-0.6-0.3-1.1-0.8-1.4-1.4s-0.5-1.3-0.5-2.2c0-0.8,0.2-1.5,0.5-2.2c0.4-0.6,0.8-1.1,1.5-1.4&#xd;&#xa;&#x9;&#x9;&#x9;&#x9;c0.6-0.3,1.3-0.5,2.1-0.5c0.8,0,1.5,0.2,2.1,0.5s1.1,0.8,1.5,1.4s0.5,1.3,0.5,2.2c0,0.8-0.2,1.5-0.5,2.2&#xd;&#xa;&#x9;&#x9;&#x9;&#x9;c-0.4,0.6-0.9,1.1-1.5,1.5c-0.6,0.3-1.3,0.5-2.1,0.5C69.8,32.1,69.1,31.9,68.5,31.6z M71.7,30.4c0.4-0.2,0.7-0.5,0.9-0.9&#xd;&#xa;&#x9;&#x9;&#x9;&#x9;c0.2-0.4,0.3-0.9,0.3-1.5s-0.1-1.1-0.3-1.5c-0.2-0.4-0.5-0.7-0.9-0.9c-0.4-0.2-0.8-0.3-1.2-0.3s-0.8,0.1-1.2,0.3&#xd;&#xa;&#x9;&#x9;&#x9;&#x9;c-0.4,0.2-0.6,0.5-0.9,0.9c-0.2,0.4-0.3,0.9-0.3,1.5c0,0.9,0.2,1.5,0.7,2c0.4,0.5,1,0.7,1.7,0.7C71,30.7,71.4,30.6,71.7,30.4z"/>
    <path class="st1" d="M82,24.3c0.5,0.3,0.9,0.6,1.2,1.2c0.3,0.5,0.4,1.1,0.4,1.9V32H82v-4.5c0-0.7-0.2-1.3-0.5-1.6&#xd;&#xa;&#x9;&#x9;&#x9;&#x9;c-0.4-0.4-0.8-0.6-1.5-0.6c-0.6,0-1.1,0.2-1.5,0.6S78,26.8,78,27.5V32h-1.6v-8H78v0.9c0.3-0.3,0.6-0.6,1-0.8&#xd;&#xa;&#x9;&#x9;&#x9;&#x9;c0.4-0.2,0.9-0.3,1.3-0.3C80.9,23.9,81.5,24,82,24.3z"/>
    <path class="st1" d="M85.8,22.7c-0.2-0.2-0.3-0.5-0.3-0.8s0.1-0.5,0.3-0.8c0.2-0.2,0.5-0.3,0.8-0.3s0.5,0.1,0.7,0.3&#xd;&#xa;&#x9;&#x9;&#x9;&#x9;c0.2,0.2,0.3,0.5,0.3,0.8s-0.1,0.5-0.3,0.8c-0.2,0.2-0.4,0.3-0.7,0.3C86.2,23,86,22.9,85.8,22.7z M87.3,24v8h-1.6v-8H87.3z"/>
    <path class="st1" d="M92.3,24.3c0.5-0.2,1-0.4,1.6-0.4c0.7,0,1.3,0.2,1.9,0.5s1,0.8,1.3,1.4s0.5,1.3,0.5,2.1&#xd;&#xa;&#x9;&#x9;&#x9;&#x9;c0,0.8-0.2,1.5-0.5,2.1s-0.8,1.1-1.4,1.5S94.5,32,93.8,32c-0.6,0-1.2-0.1-1.6-0.4c-0.5-0.2-0.9-0.5-1.1-0.9V32h-1.6V21.3h1.6v3.9&#xd;&#xa;&#x9;&#x9;&#x9;&#x9;C91.4,24.8,91.8,24.5,92.3,24.3z M95.6,26.5c-0.2-0.4-0.5-0.7-0.9-0.9c-0.4-0.2-0.8-0.3-1.2-0.3c-0.4,0-0.8,0.1-1.2,0.3&#xd;&#xa;&#x9;&#x9;&#x9;&#x9;c-0.4,0.2-0.7,0.5-0.9,0.9c-0.2,0.4-0.3,0.9-0.3,1.4s0.1,1,0.3,1.4c0.2,0.4,0.5,0.7,0.9,0.9c0.4,0.2,0.8,0.3,1.2,0.3&#xd;&#xa;&#x9;&#x9;&#x9;&#x9;c0.4,0,0.8-0.1,1.2-0.3c0.4-0.2,0.7-0.5,0.9-0.9C95.9,29,96,28.5,96,28S95.9,26.9,95.6,26.5z"/>
    <path class="st1" d="M100.9,21.3V32h-1.6V21.3H100.9z"/>
    <path class="st1" d="M110.4,28.6h-6.1c0,0.6,0.3,1.1,0.7,1.5c0.4,0.4,0.9,0.6,1.6,0.6c0.9,0,1.5-0.4,1.9-1.1h1.8&#xd;&#xa;&#x9;&#x9;&#x9;&#x9;c-0.2,0.7-0.7,1.3-1.3,1.8c-0.6,0.5-1.4,0.7-2.3,0.7c-0.8,0-1.4-0.2-2-0.5s-1.1-0.8-1.4-1.4s-0.5-1.3-0.5-2.2&#xd;&#xa;&#x9;&#x9;&#x9;&#x9;c0-0.8,0.2-1.5,0.5-2.2c0.3-0.6,0.8-1.1,1.4-1.4s1.3-0.5,2.1-0.5c0.8,0,1.4,0.2,2,0.5s1,0.8,1.4,1.4c0.3,0.6,0.5,1.3,0.5,2&#xd;&#xa;&#x9;&#x9;&#x9;&#x9;C110.4,28.1,110.4,28.4,110.4,28.6z M108.7,27.3c0-0.6-0.2-1.1-0.7-1.5c-0.4-0.4-0.9-0.5-1.6-0.5c-0.6,0-1.1,0.2-1.5,0.5&#xd;&#xa;&#x9;&#x9;&#x9;&#x9;c-0.4,0.4-0.6,0.9-0.7,1.5H108.7z"/>
    <path class="st1" d="M44.2,39.3l-3.8,10h-1.9l-3.8-10h1.8l3,8.4l3-8.4C42.5,39.3,44.2,39.3,44.2,39.3z"/>
    <path class="st1" d="M52.8,46h-6.1c0,0.6,0.3,1.1,0.7,1.5s0.9,0.6,1.6,0.6c0.9,0,1.5-0.4,1.9-1.1h1.8c-0.2,0.7-0.7,1.3-1.3,1.8&#xd;&#xa;&#x9;&#x9;&#x9;&#x9;s-1.4,0.7-2.3,0.7c-0.8,0-1.4-0.2-2-0.5s-1.1-0.8-1.4-1.4c-0.3-0.6-0.5-1.3-0.5-2.2c0-0.8,0.2-1.5,0.5-2.2&#xd;&#xa;&#x9;&#x9;&#x9;&#x9;c0.3-0.6,0.8-1.1,1.4-1.4c0.6-0.3,1.3-0.5,2.1-0.5s1.4,0.2,2,0.5s1,0.8,1.4,1.4c0.3,0.6,0.5,1.3,0.5,2&#xd;&#xa;&#x9;&#x9;&#x9;&#x9;C52.8,45.5,52.8,45.7,52.8,46z M51.1,44.6c0-0.6-0.2-1.1-0.7-1.5c-0.4-0.4-0.9-0.5-1.6-0.5c-0.6,0-1.1,0.2-1.5,0.5&#xd;&#xa;&#x9;&#x9;&#x9;&#x9;c-0.4,0.4-0.6,0.9-0.7,1.5H51.1z"/>
    <path class="st1" d="M60.2,41.6c0.5,0.3,0.9,0.6,1.2,1.2c0.3,0.5,0.4,1.1,0.4,1.9v4.7h-1.6v-4.5c0-0.7-0.2-1.3-0.5-1.6&#xd;&#xa;&#x9;&#x9;&#x9;&#x9;c-0.4-0.4-0.8-0.6-1.5-0.6c-0.6,0-1.1,0.2-1.5,0.6c-0.4,0.4-0.5,0.9-0.5,1.6v4.5h-1.6v-8h1.6v0.9c0.3-0.3,0.6-0.6,1-0.8&#xd;&#xa;&#x9;&#x9;&#x9;&#x9;s0.9-0.3,1.3-0.3C59.1,41.2,59.7,41.4,60.2,41.6z"/>
    <path class="st1" d="M63.8,43.2c0.3-0.6,0.8-1.1,1.4-1.4c0.6-0.3,1.2-0.5,1.9-0.5c0.5,0,1,0.1,1.5,0.3s0.9,0.5,1.2,0.9v-3.8h1.7&#xd;&#xa;&#x9;&#x9;&#x9;&#x9;v10.7h-1.7v-1.2c-0.3,0.4-0.6,0.7-1.1,1s-1,0.4-1.6,0.4c-0.7,0-1.3-0.2-1.9-0.5c-0.6-0.4-1-0.8-1.4-1.5c-0.3-0.6-0.5-1.3-0.5-2.1&#xd;&#xa;&#x9;&#x9;&#x9;&#x9;S63.4,43.8,63.8,43.2z M69.5,43.9c-0.2-0.4-0.5-0.7-0.9-0.9s-0.8-0.3-1.2-0.3s-0.8,0.1-1.2,0.3s-0.7,0.5-0.9,0.9&#xd;&#xa;&#x9;&#x9;&#x9;&#x9;c-0.2,0.4-0.3,0.9-0.3,1.4s0.1,1,0.3,1.4c0.2,0.4,0.5,0.7,0.9,0.9s0.8,0.3,1.2,0.3s0.8-0.1,1.2-0.3s0.7-0.5,0.9-0.9&#xd;&#xa;&#x9;&#x9;&#x9;&#x9;c0.2-0.4,0.3-0.9,0.3-1.4C69.8,44.8,69.7,44.3,69.5,43.9z"/>
    <path class="st1" d="M73.7,40c-0.2-0.2-0.3-0.5-0.3-0.8s0.1-0.5,0.3-0.8c0.2-0.3,0.5-0.3,0.8-0.3c0.3,0,0.5,0.1,0.7,0.3&#xd;&#xa;&#x9;&#x9;&#x9;&#x9;c0.2,0.2,0.3,0.5,0.3,0.8s-0.1,0.5-0.3,0.8c-0.2,0.2-0.4,0.3-0.7,0.3C74.2,40.3,73.9,40.2,73.7,40z M75.3,41.4v8h-1.6v-8H75.3z"/>
    <path class="st1" d="M77.4,43.2c0.3-0.6,0.8-1.1,1.4-1.4c0.6-0.3,1.2-0.5,1.9-0.5c0.5,0,1,0.1,1.5,0.3s0.9,0.5,1.2,0.9v-3.8h1.7&#xd;&#xa;&#x9;&#x9;&#x9;&#x9;v10.7h-1.7v-1.2c-0.3,0.4-0.6,0.7-1.1,1s-1,0.4-1.6,0.4c-0.7,0-1.3-0.2-1.9-0.5c-0.6-0.4-1-0.8-1.4-1.5c-0.3-0.6-0.5-1.3-0.5-2.1&#xd;&#xa;&#x9;&#x9;&#x9;&#x9;S77.1,43.8,77.4,43.2z M83.1,43.9c-0.2-0.4-0.5-0.7-0.9-0.9s-0.8-0.3-1.2-0.3c-0.4,0-0.8,0.1-1.2,0.3c-0.4,0.2-0.7,0.5-0.9,0.9&#xd;&#xa;&#x9;&#x9;&#x9;&#x9;c-0.2,0.4-0.3,0.9-0.3,1.4s0.1,1,0.3,1.4c0.2,0.4,0.5,0.7,0.9,0.9s0.8,0.3,1.2,0.3c0.4,0,0.8-0.1,1.2-0.3&#xd;&#xa;&#x9;&#x9;&#x9;&#x9;c0.4-0.2,0.7-0.5,0.9-0.9c0.2-0.4,0.3-0.9,0.3-1.4C83.4,44.8,83.3,44.3,83.1,43.9z"/>
    <path class="st1" d="M88.7,48.9c-0.6-0.3-1.1-0.8-1.4-1.4c-0.3-0.6-0.5-1.3-0.5-2.2c0-0.8,0.2-1.5,0.5-2.2&#xd;&#xa;&#x9;&#x9;&#x9;&#x9;c0.4-0.6,0.8-1.1,1.5-1.4c0.6-0.3,1.3-0.5,2.1-0.5s1.5,0.2,2.1,0.5s1.1,0.8,1.5,1.4c0.4,0.6,0.5,1.3,0.5,2.2&#xd;&#xa;&#x9;&#x9;&#x9;&#x9;c0,0.8-0.2,1.5-0.5,2.2c-0.4,0.6-0.9,1.1-1.5,1.5c-0.6,0.3-1.3,0.5-2.1,0.5C89.9,49.5,89.3,49.3,88.7,48.9z M91.9,47.7&#xd;&#xa;&#x9;&#x9;&#x9;&#x9;c0.4-0.2,0.7-0.5,0.9-0.9c0.2-0.4,0.3-0.9,0.3-1.5s-0.1-1.1-0.3-1.5c-0.2-0.4-0.5-0.7-0.9-0.9s-0.8-0.3-1.2-0.3&#xd;&#xa;&#x9;&#x9;&#x9;&#x9;c-0.4,0-0.8,0.1-1.2,0.3c-0.4,0.2-0.6,0.5-0.9,0.9c-0.2,0.4-0.3,0.9-0.3,1.5c0,0.9,0.2,1.5,0.7,2c0.4,0.5,1,0.7,1.7,0.7&#xd;&#xa;&#x9;&#x9;&#x9;&#x9;C91.1,48,91.5,47.9,91.9,47.7z"/>
    <path class="st1" d="M40.7,66.7l-2.3-4h-1.3v4h-1.6v-10H39c0.8,0,1.4,0.1,2,0.4c0.5,0.3,0.9,0.6,1.2,1.1s0.4,1,0.4,1.5&#xd;&#xa;&#x9;&#x9;&#x9;&#x9;c0,0.7-0.2,1.3-0.6,1.8c-0.4,0.5-1,0.9-1.8,1.1l2.5,4.2L40.7,66.7L40.7,66.7z M37.2,61.3H39c0.6,0,1.1-0.2,1.4-0.5&#xd;&#xa;&#x9;&#x9;&#x9;&#x9;s0.5-0.7,0.5-1.2s-0.2-0.9-0.5-1.2S39.6,58,39,58h-1.8V61.3z"/>
    <path class="st1" d="M51.9,63.3h-6.1c0,0.6,0.3,1.1,0.7,1.5s0.9,0.6,1.6,0.6c0.9,0,1.5-0.4,1.9-1.1h1.8c-0.2,0.7-0.7,1.3-1.3,1.8&#xd;&#xa;&#x9;&#x9;&#x9;&#x9;s-1.4,0.7-2.3,0.7c-0.8,0-1.4-0.2-2-0.5s-1.1-0.8-1.4-1.4c-0.3-0.6-0.5-1.3-0.5-2.2s0.2-1.5,0.5-2.2c0.3-0.6,0.8-1.1,1.4-1.4&#xd;&#xa;&#x9;&#x9;&#x9;&#x9;c0.6-0.3,1.3-0.5,2.1-0.5s1.4,0.2,2,0.5s1,0.8,1.4,1.4c0.3,0.6,0.5,1.3,0.5,2C51.9,62.8,51.9,63.1,51.9,63.3z M50.2,62&#xd;&#xa;&#x9;&#x9;&#x9;&#x9;c0-0.6-0.2-1.1-0.7-1.5C49.1,60.1,48.6,60,48,60s-1.1,0.2-1.5,0.5c-0.4,0.4-0.6,0.9-0.7,1.5H50.2z"/>
    <path class="st1" d="M54.8,66.5c-0.5-0.2-0.9-0.5-1.2-0.9s-0.4-0.8-0.5-1.3h1.7c0,0.3,0.2,0.6,0.5,0.8c0.3,0.2,0.7,0.3,1.1,0.3&#xd;&#xa;&#x9;&#x9;&#x9;&#x9;c0.5,0,0.8-0.1,1.1-0.3c0.3-0.2,0.4-0.4,0.4-0.7c0-0.3-0.1-0.5-0.4-0.7c-0.3-0.1-0.7-0.3-1.4-0.5c-0.6-0.2-1.1-0.3-1.5-0.5&#xd;&#xa;&#x9;&#x9;&#x9;&#x9;s-0.7-0.4-1-0.7s-0.4-0.7-0.4-1.3c0-0.4,0.1-0.8,0.4-1.2c0.3-0.4,0.6-0.6,1.1-0.8s1-0.3,1.6-0.3c0.9,0,1.6,0.2,2.2,0.7&#xd;&#xa;&#x9;&#x9;&#x9;&#x9;s0.9,1.1,0.9,1.9h-1.6c0-0.4-0.2-0.6-0.4-0.9c-0.3-0.2-0.6-0.3-1.1-0.3c-0.4,0-0.8,0.1-1,0.2c-0.2,0.2-0.3,0.4-0.3,0.6&#xd;&#xa;&#x9;&#x9;&#x9;&#x9;c0,0.2,0.1,0.4,0.2,0.5c0.2,0.1,0.3,0.3,0.6,0.3c0.2,0.1,0.5,0.2,1,0.3c0.6,0.2,1.1,0.3,1.4,0.5c0.4,0.2,0.7,0.4,1,0.7&#xd;&#xa;&#x9;&#x9;&#x9;&#x9;s0.4,0.7,0.4,1.2c0,0.5-0.1,0.9-0.4,1.2s-0.6,0.6-1.1,0.8s-1,0.3-1.6,0.3C55.8,66.8,55.3,66.7,54.8,66.5z"/>
    <path class="st1" d="M68.5,63.3h-6.1c0,0.6,0.3,1.1,0.7,1.5s0.9,0.6,1.6,0.6c0.9,0,1.5-0.4,1.9-1.1h1.8c-0.2,0.7-0.7,1.3-1.3,1.8&#xd;&#xa;&#x9;&#x9;&#x9;&#x9;s-1.4,0.7-2.3,0.7c-0.8,0-1.4-0.2-2-0.5s-1.1-0.8-1.4-1.4c-0.3-0.6-0.5-1.3-0.5-2.2s0.2-1.5,0.5-2.2c0.3-0.6,0.8-1.1,1.4-1.4&#xd;&#xa;&#x9;&#x9;&#x9;&#x9;c0.6-0.3,1.3-0.5,2.1-0.5c0.8,0,1.4,0.2,2,0.5s1,0.8,1.4,1.4c0.3,0.6,0.5,1.3,0.5,2C68.6,62.8,68.6,63.1,68.5,63.3z M66.9,62&#xd;&#xa;&#x9;&#x9;&#x9;&#x9;c0-0.6-0.2-1.1-0.7-1.5c-0.4-0.4-0.9-0.5-1.6-0.5c-0.6,0-1.1,0.2-1.5,0.5c-0.4,0.4-0.6,0.9-0.7,1.5H66.9z"/>
    <path class="st1" d="M72.8,58.9c0.4-0.2,0.9-0.3,1.4-0.3v1.7h-0.4c-0.6,0-1.1,0.2-1.5,0.5c-0.3,0.3-0.5,0.9-0.5,1.7v4.2h-1.6v-8&#xd;&#xa;&#x9;&#x9;&#x9;&#x9;h1.6v1.2C72.1,59.5,72.4,59.1,72.8,58.9z"/>
    <path class="st1" d="M78.8,65.2l2.3-6.5h1.7l-3,8h-2l-3-8h1.8L78.8,65.2z"/>
    <path class="st1" d="M84,60.5c0.3-0.6,0.8-1.1,1.4-1.4c0.6-0.3,1.2-0.5,1.9-0.5c0.6,0,1.2,0.1,1.6,0.4c0.5,0.2,0.8,0.6,1.1,0.9&#xd;&#xa;&#x9;&#x9;&#x9;&#x9;v-1.2h1.7v8H90v-1.2c-0.3,0.4-0.7,0.7-1.1,0.9c-0.5,0.3-1,0.4-1.6,0.4c-0.7,0-1.3-0.2-1.9-0.5c-0.6-0.4-1-0.8-1.4-1.5&#xd;&#xa;&#x9;&#x9;&#x9;&#x9;c-0.3-0.6-0.5-1.3-0.5-2.1C83.5,61.9,83.7,61.1,84,60.5z M89.7,61.2c-0.2-0.4-0.5-0.7-0.9-0.9S88,60,87.6,60s-0.8,0.1-1.2,0.3&#xd;&#xa;&#x9;&#x9;&#x9;&#x9;c-0.4,0.2-0.7,0.5-0.9,0.9c-0.2,0.4-0.3,0.9-0.3,1.4s0.1,1,0.3,1.4c0.2,0.4,0.5,0.7,0.9,0.9c0.4,0.2,0.8,0.3,1.2,0.3&#xd;&#xa;&#x9;&#x9;&#x9;&#x9;c0.4,0,0.8-0.1,1.2-0.3s0.7-0.5,0.9-0.9c0.2-0.4,0.3-0.9,0.3-1.4S89.9,61.7,89.7,61.2z"/>
    <path class="st1" d="M93.8,60.5c0.3-0.6,0.8-1.1,1.4-1.4c0.6-0.3,1.2-0.5,1.9-0.5c0.5,0,1,0.1,1.5,0.3s0.9,0.5,1.2,0.9V56h1.7&#xd;&#xa;&#x9;&#x9;&#x9;&#x9;v10.7h-1.7v-1.2c-0.3,0.4-0.6,0.7-1.1,1s-1,0.4-1.6,0.4c-0.7,0-1.3-0.2-1.9-0.5c-0.6-0.4-1-0.8-1.4-1.5c-0.3-0.6-0.5-1.3-0.5-2.1&#xd;&#xa;&#x9;&#x9;&#x9;&#x9;C93.3,61.9,93.5,61.1,93.8,60.5z M99.5,61.2c-0.2-0.4-0.5-0.7-0.9-0.9S97.8,60,97.4,60s-0.8,0.1-1.2,0.3&#xd;&#xa;&#x9;&#x9;&#x9;&#x9;c-0.4,0.2-0.7,0.5-0.9,0.9c-0.2,0.4-0.3,0.9-0.3,1.4s0.1,1,0.3,1.4c0.2,0.4,0.5,0.7,0.9,0.9c0.4,0.2,0.8,0.3,1.2,0.3&#xd;&#xa;&#x9;&#x9;&#x9;&#x9;c0.4,0,0.8-0.1,1.2-0.3s0.7-0.5,0.9-0.9c0.2-0.4,0.3-0.9,0.3-1.4S99.7,61.7,99.5,61.2z"/>
    <path class="st1" d="M105.1,66.3c-0.6-0.3-1.1-0.8-1.4-1.4s-0.5-1.3-0.5-2.2c0-0.8,0.2-1.5,0.5-2.2c0.4-0.6,0.8-1.1,1.5-1.4&#xd;&#xa;&#x9;&#x9;&#x9;&#x9;c0.6-0.3,1.3-0.5,2.1-0.5s1.5,0.2,2.1,0.5s1.1,0.8,1.5,1.4c0.4,0.6,0.5,1.3,0.5,2.2c0,0.8-0.2,1.5-0.5,2.2&#xd;&#xa;&#x9;&#x9;&#x9;&#x9;c-0.4,0.6-0.9,1.1-1.5,1.5c-0.6,0.3-1.3,0.5-2.1,0.5C106.4,66.8,105.7,66.6,105.1,66.3z M108.3,65.1c0.4-0.2,0.7-0.5,0.9-0.9&#xd;&#xa;&#x9;&#x9;&#x9;&#x9;c0.2-0.4,0.3-0.9,0.3-1.5s-0.1-1.1-0.3-1.5c-0.2-0.4-0.5-0.7-0.9-0.9c-0.3-0.2-0.7-0.3-1.1-0.3s-0.8,0.1-1.2,0.3&#xd;&#xa;&#x9;&#x9;&#x9;&#x9;c-0.4,0.2-0.6,0.5-0.9,0.9c-0.2,0.4-0.3,0.9-0.3,1.5c0,0.9,0.2,1.5,0.7,2c0.4,0.5,1,0.7,1.7,0.7&#xd;&#xa;&#x9;&#x9;&#x9;&#x9;C107.5,65.4,107.9,65.3,108.3,65.1z"/>
    <path class="st1" d="M37.2,75.3v2.9h3.5v1.3h-3.5v3.1h3.9V84h-5.5V74h5.5v1.3H37.2z"/>
    <path class="st1" d="M48.8,76.3c0.5,0.3,0.9,0.6,1.2,1.2c0.3,0.5,0.4,1.1,0.4,1.9V84h-1.6v-4.5c0-0.7-0.2-1.3-0.5-1.6&#xd;&#xa;&#x9;&#x9;&#x9;&#x9;c-0.4-0.4-0.8-0.6-1.5-0.6c-0.6,0-1.1,0.2-1.5,0.6s-0.5,0.9-0.5,1.6V84h-1.6v-8h1.6v1c0.3-0.3,0.6-0.6,1-0.8&#xd;&#xa;&#x9;&#x9;&#x9;&#x9;c0.4-0.2,0.9-0.3,1.3-0.3C47.7,75.9,48.3,76.1,48.8,76.3z"/>
    <path class="st1" d="M62.9,78.4c-0.2,0.5-0.6,0.8-1.2,1.1c-0.5,0.3-1.2,0.4-2,0.4h-1.8V84h-1.6V74h3.5c0.8,0,1.4,0.1,2,0.4&#xd;&#xa;&#x9;&#x9;&#x9;&#x9;c0.5,0.3,0.9,0.6,1.2,1.1s0.4,1,0.4,1.5C63.2,77.5,63.1,78,62.9,78.4z M61.1,78.2c0.3-0.3,0.5-0.7,0.5-1.2c0-1.1-0.6-1.6-1.9-1.6&#xd;&#xa;&#x9;&#x9;&#x9;&#x9;h-1.8v3.3h1.8C60.3,78.6,60.8,78.5,61.1,78.2z"/>
    <path class="st1" d="M67.4,76.3c0.4-0.2,0.9-0.3,1.4-0.3v1.7h-0.4c-0.6,0-1.1,0.2-1.5,0.5c-0.3,0.3-0.5,0.9-0.5,1.7V84h-1.6v-8&#xd;&#xa;&#x9;&#x9;&#x9;&#x9;h1.6v1.2C66.7,76.8,67,76.5,67.4,76.3z"/>
    <path class="st1" d="M71.8,83.6c-0.6-0.3-1.1-0.8-1.4-1.4c-0.3-0.6-0.5-1.3-0.5-2.2c0-0.8,0.2-1.5,0.5-2.2&#xd;&#xa;&#x9;&#x9;&#x9;&#x9;c0.4-0.6,0.8-1.1,1.5-1.4c0.6-0.3,1.3-0.5,2.1-0.5c0.8,0,1.5,0.2,2.1,0.5c0.6,0.3,1.1,0.8,1.5,1.4s0.5,1.3,0.5,2.2&#xd;&#xa;&#x9;&#x9;&#x9;&#x9;s-0.2,1.5-0.5,2.2c-0.4,0.6-0.9,1.1-1.5,1.5c-0.6,0.3-1.3,0.5-2.1,0.5C73.1,84.1,72.4,84,71.8,83.6z M75,82.4&#xd;&#xa;&#x9;&#x9;&#x9;&#x9;c0.4-0.2,0.7-0.5,0.9-0.9c0.2-0.4,0.3-0.9,0.3-1.5s-0.1-1.1-0.3-1.5c-0.2-0.4-0.5-0.7-0.9-0.9c-0.4-0.2-0.8-0.3-1.2-0.3&#xd;&#xa;&#x9;&#x9;&#x9;&#x9;s-0.8,0.1-1.2,0.3c-0.4,0.2-0.6,0.5-0.9,0.9c-0.2,0.4-0.3,0.9-0.3,1.5c0,0.9,0.2,1.5,0.7,2c0.4,0.5,1,0.7,1.7,0.7&#xd;&#xa;&#x9;&#x9;&#x9;&#x9;C74.2,82.7,74.6,82.6,75,82.4z"/>
    <path class="st1" d="M90.9,76.3c0.5,0.3,0.9,0.6,1.2,1.2c0.3,0.5,0.4,1.1,0.4,1.9V84h-1.6v-4.5c0-0.7-0.2-1.3-0.5-1.6&#xd;&#xa;&#x9;&#x9;&#x9;&#x9;c-0.4-0.4-0.8-0.6-1.5-0.6c-0.6,0-1.1,0.2-1.5,0.6s-0.5,0.9-0.5,1.6V84h-1.6v-4.5c0-0.7-0.2-1.3-0.5-1.6&#xd;&#xa;&#x9;&#x9;&#x9;&#x9;c-0.4-0.4-0.8-0.6-1.5-0.6c-0.6,0-1.1,0.2-1.5,0.6s-0.5,0.9-0.5,1.6V84h-1.6v-8h1.6v1c0.3-0.3,0.6-0.6,1-0.8&#xd;&#xa;&#x9;&#x9;&#x9;&#x9;c0.4-0.2,0.9-0.3,1.3-0.3c0.6,0,1.2,0.1,1.7,0.4s0.9,0.7,1.2,1.2c0.2-0.5,0.6-0.9,1.1-1.1c0.5-0.3,1.1-0.4,1.6-0.4&#xd;&#xa;&#x9;&#x9;&#x9;&#x9;C89.8,75.9,90.4,76.1,90.9,76.3z"/>
    <path class="st1" d="M96,83.6c-0.6-0.3-1.1-0.8-1.4-1.4s-0.5-1.3-0.5-2.2c0-0.8,0.2-1.5,0.5-2.2c0.4-0.6,0.8-1.1,1.5-1.4&#xd;&#xa;&#x9;&#x9;&#x9;&#x9;c0.6-0.3,1.3-0.5,2.1-0.5s1.5,0.2,2.1,0.5s1.1,0.8,1.5,1.4s0.5,1.3,0.5,2.2s-0.2,1.5-0.5,2.2c-0.4,0.6-0.9,1.1-1.5,1.5&#xd;&#xa;&#x9;&#x9;&#x9;&#x9;c-0.6,0.3-1.3,0.5-2.1,0.5C97.3,84.1,96.6,84,96,83.6z M99.2,82.4c0.4-0.2,0.7-0.5,0.9-0.9c0.2-0.4,0.3-0.9,0.3-1.5&#xd;&#xa;&#x9;&#x9;&#x9;&#x9;s-0.1-1.1-0.3-1.5c-0.2-0.4-0.5-0.7-0.9-0.9c-0.4-0.2-0.8-0.3-1.2-0.3c-0.4,0-0.8,0.1-1.2,0.3c-0.4,0.2-0.6,0.5-0.9,0.9&#xd;&#xa;&#x9;&#x9;&#x9;&#x9;c-0.2,0.4-0.3,0.9-0.3,1.5c0,0.9,0.2,1.5,0.7,2c0.4,0.5,1,0.7,1.7,0.7C98.5,82.7,98.9,82.6,99.2,82.4z"/>
    <path class="st1" d="M103.8,77.9c0.3-0.6,0.8-1.1,1.4-1.4s1.3-0.5,2-0.5c1,0,1.8,0.2,2.4,0.7s1.1,1.1,1.3,2h-1.8&#xd;&#xa;&#x9;&#x9;&#x9;&#x9;c-0.1-0.4-0.4-0.7-0.7-0.9c-0.3-0.2-0.7-0.3-1.2-0.3c-0.7,0-1.2,0.2-1.6,0.7s-0.6,1.1-0.6,2s0.2,1.5,0.6,2s0.9,0.7,1.6,0.7&#xd;&#xa;&#x9;&#x9;&#x9;&#x9;c1,0,1.6-0.4,1.9-1.3h1.8c-0.2,0.8-0.7,1.5-1.3,1.9c-0.6,0.5-1.4,0.7-2.4,0.7c-0.8,0-1.4-0.2-2-0.5s-1-0.8-1.4-1.4&#xd;&#xa;&#x9;&#x9;&#x9;&#x9;c-0.3-0.6-0.5-1.3-0.5-2.2S103.4,78.5,103.8,77.9z"/>
    <path class="st1" d="M112.6,74.7c-0.2-0.2-0.3-0.5-0.3-0.8s0.1-0.5,0.3-0.8c0.2-0.2,0.5-0.3,0.8-0.3s0.5,0.1,0.7,0.3&#xd;&#xa;&#x9;&#x9;&#x9;&#x9;c0.2,0.2,0.3,0.5,0.3,0.8s-0.1,0.5-0.3,0.8c-0.2,0.2-0.4,0.3-0.7,0.3C113,75,112.8,74.9,112.6,74.7z M114.1,76.1v8h-1.6v-8H114.1&#xd;&#xa;&#x9;&#x9;&#x9;&#x9;z"/>
    <path class="st1" d="M117.7,83.6c-0.6-0.3-1.1-0.8-1.4-1.4s-0.5-1.3-0.5-2.2c0-0.8,0.2-1.5,0.5-2.2c0.4-0.6,0.8-1.1,1.5-1.4&#xd;&#xa;&#x9;&#x9;&#x9;&#x9;c0.6-0.3,1.3-0.5,2.1-0.5s1.5,0.2,2.1,0.5s1.1,0.8,1.5,1.4s0.5,1.3,0.5,2.2s-0.2,1.5-0.5,2.2c-0.4,0.6-0.9,1.1-1.5,1.5&#xd;&#xa;&#x9;&#x9;&#x9;&#x9;c-0.6,0.3-1.3,0.5-2.1,0.5C119,84.1,118.3,84,117.7,83.6z M121,82.4c0.4-0.2,0.7-0.5,0.9-0.9c0.2-0.4,0.3-0.9,0.3-1.5&#xd;&#xa;&#x9;&#x9;&#x9;&#x9;s-0.1-1.1-0.3-1.5c-0.2-0.4-0.5-0.7-0.9-0.9c-0.4-0.2-0.8-0.3-1.2-0.3c-0.4,0-0.8,0.1-1.2,0.3c-0.4,0.2-0.6,0.5-0.9,0.9&#xd;&#xa;&#x9;&#x9;&#x9;&#x9;c-0.2,0.4-0.3,0.9-0.3,1.5c0,0.9,0.2,1.5,0.7,2c0.4,0.5,1,0.7,1.7,0.7C120.2,82.7,120.6,82.6,121,82.4z M121.3,73.8l-3.2,1.6&#xd;&#xa;&#x9;&#x9;&#x9;&#x9;v-1.2l3.2-1.8V73.8z"/>
    <path class="st1" d="M131.2,76.3c0.5,0.3,0.9,0.6,1.2,1.2c0.3,0.5,0.4,1.1,0.4,1.9V84h-1.6v-4.5c0-0.7-0.2-1.3-0.5-1.6&#xd;&#xa;&#x9;&#x9;&#x9;&#x9;c-0.4-0.4-0.8-0.6-1.5-0.6c-0.6,0-1.1,0.2-1.5,0.6s-0.5,0.9-0.5,1.6V84h-1.6v-8h1.6v1c0.3-0.3,0.6-0.6,1-0.8&#xd;&#xa;&#x9;&#x9;&#x9;&#x9;c0.4-0.2,0.9-0.3,1.3-0.3C130.2,75.9,130.7,76.1,131.2,76.3z"/>
   </g>
  </g>
  <circle cx="17" class="st1" cy="26.8" r="5.5"/>
  <circle cx="17" class="st2" cy="44.6" r="5.5"/>
  <circle cx="17" class="st3" cy="62.4" r="5.5"/>
  <circle cx="17" class="st4" cy="80.2" r="5.5"/>
 </g>
</svg>
